<?xml version="1.0" standalone="no"?>
<!DOCTYPE svg PUBLIC "-//W3C//DTD SVG 20010904//EN"
 "http://www.w3.org/TR/2001/REC-SVG-20010904/DTD/svg10.dtd">
<svg version="1.0" xmlns="http://www.w3.org/2000/svg"
 width="260.000000pt" height="260.000000pt" viewBox="0 0 260.000000 260.000000"
 preserveAspectRatio="xMidYMid meet">
<metadata>
Created by potrace 1.11, written by Peter Selinger 2001-2013
</metadata>
<g transform="translate(0.000000,260.000000) scale(0.100000,-0.100000)"
fill="#000000" stroke="none">
<path d="M219 2038 c0 -13 -2 -30 -4 -38 -1 -8 -5 -44 -9 -80 -3 -36 -8 -76
-10 -90 -4 -23 -13 -98 -21 -175 -2 -16 -6 -55 -9 -85 -4 -30 -8 -66 -11 -80
-2 -14 -7 -52 -10 -85 -3 -33 -8 -80 -11 -105 -3 -25 -7 -58 -9 -75 -2 -16 -7
-57 -10 -90 -3 -33 -8 -71 -10 -85 -3 -14 -7 -50 -10 -80 -3 -30 -8 -71 -10
-90 -5 -37 -12 -92 -20 -175 -3 -27 -8 -66 -10 -85 -3 -19 -7 -51 -9 -70 -2
-19 -7 -59 -11 -87 l-6 -53 1180 0 1181 0 1 28 c0 15 2 36 4 47 2 11 7 40 10
65 8 60 15 109 21 140 2 14 11 75 19 137 9 62 17 120 19 130 2 10 7 39 10 66
l7 47 -831 0 -830 0 5 23 c2 12 7 45 10 72 3 28 10 86 15 130 6 44 13 98 16
120 2 22 7 51 9 65 2 14 7 54 11 90 3 36 8 72 9 82 4 21 13 88 21 153 3 28 7
60 9 73 3 22 17 142 17 152 1 29 -5 30 -362 30 l-360 0 -1 -22z"/>
<path d="M1369 2050 c-1 -3 -3 -14 -4 -25 -1 -11 -5 -42 -9 -70 -3 -27 -9 -70
-12 -95 -3 -25 -7 -56 -9 -70 -23 -165 -46 -382 -42 -386 5 -6 528 -7 533 -1
2 1 4 36 6 77 l3 75 -85 2 c-47 0 -113 2 -147 2 -53 1 -61 3 -58 19 2 9 4 32
4 50 l1 32 125 0 c93 0 125 3 126 13 0 6 3 26 5 42 2 17 6 45 8 63 l4 32 -122
0 -122 0 4 40 c3 33 8 40 26 41 11 0 76 1 143 2 67 1 124 4 126 7 3 3 8 34 12
70 4 36 9 68 12 73 2 4 -8 7 -24 8 -197 3 -503 3 -504 -1z"/>
<path d="M1996 2020 c-3 -19 -8 -55 -11 -80 -3 -25 -7 -61 -10 -80 -7 -54 -14
-111 -20 -160 -9 -75 -16 -134 -20 -160 -2 -14 -7 -51 -10 -83 l-6 -59 203 4
203 3 67 33 c129 63 181 158 182 332 1 94 -2 111 -25 155 -29 57 -83 99 -149
115 -25 6 -125 12 -222 13 l-177 2 -5 -35z m297 -140 c34 -17 48 -64 41 -143
-9 -111 -46 -166 -118 -174 -43 -5 -45 -4 -41 18 3 23 7 52 20 159 3 25 8 59
10 75 2 17 4 40 4 52 1 14 8 23 24 25 27 5 26 5 60 -12z"/>
</g>
</svg>
